<?xml version="1.0"?>
<svg width="640" height="480" xmlns="http://www.w3.org/2000/svg" xmlns:svg="http://www.w3.org/2000/svg" xmlns:xlink="http://www.w3.org/1999/xlink">
 <!-- Created with SVG-edit - http://svg-edit.googlecode.com/ -->
 <defs>
  <symbol id="svg_2" viewBox="0 0 432 288" stroke="null" xmlns:xlink="http://www.w3.org/1999/xlink" xmlns="http://www.w3.org/2000/svg">
   <g id="svg_1" stroke="null">
    <path fill-rule="nonzero" fill="rgb(203, 51, 59);" d="m202.699219,236.867188c-16.835938,5.523438 -40.292969,9.9375 -60.714844,9.9375c-67.617188,0 -105.984375,-49.679688 -105.984375,-104.605469c0,-54.082031 48.300781,-101.00391 103.21875,-101.00391c21.800781,0 44.164047,3.31641 62.652344,9.38282c2.753906,0.832031 4.410156,28.421871 4.6875,38.37109c0.273438,1.929688 -2.761719,1.929688 -3.03125,0.53907c-12.699219,-29.53125 -32.292969,-41.671879 -66.792969,-41.671879c-41.675781,0 -74.507824,36.98048 -74.507824,95.218746c0,57.683594 36.980473,97.148438 76.992184,97.148438c34.496078,0 58.230469,-16.007797 70.929672,-45.820297c0.277328,-1.382813 3.3125,-1.382813 3.039047,0.832016c-1.10939,9.65625 -7.730469,40.839844 -10.488281,41.67189" id="svg_4" stroke="null"/>
    <path fill-rule="nonzero" fill="rgb(203, 51, 59);" d="m212.007813,141.613281c-3.304688,-3.171875 -7.03125,-4.410156 -12.550781,-4.410156c-10.761719,0 -17.808594,9.652328 -17.808594,26.488281c0,15.871078 8.011719,25.261719 20.152344,25.261719c6.074219,0 9.796875,-1.523438 13.664063,-5.39064c1.101563,-1.25 1.515625,-1.925781 1.515625,-3.45314l0.273438,-15.175781c0.273438,-16.96875 -1.789063,-20.003906 -5.246094,-23.320297m8.5625,53.550781c-0.417969,0.26564 -1.109375,0 -1.246078,-0.691422c-1.097672,-2.757813 -1.652328,-5.519531 -1.933578,-8.566422c0,-0.410172 -0.960953,-0.683578 -1.097672,-0.54689c-4.414047,5.246078 -11.45314,9.386719 -19.1875,9.386719c-16.554688,0 -26.347672,-13.39064 -26.347672,-29.945297c0,-16.152328 12.960953,-30.085953 30.625,-30.085953c5.9375,0 10.496094,0.82814 14.628922,2.621094c0.554703,0.144516 1.242203,0 1.242203,-0.554703c-0.136734,-38.359375 -0.550781,-40.292976 -1.929703,-41.121086c-1.23439,-0.824226 -3.445297,-1.378906 -6.761719,-1.792976c-1.105469,-0.140633 -0.832031,-1.105469 -0.14064,-1.238274c6.628922,-1.109375 14.210938,-3.59375 18.632813,-6.757805c0.824219,-0.554695 1.652344,0.410156 1.515625,1.097656c-0.828125,2.898453 -1.101547,8.28125 -1.101547,9.792984l-0.277328,68.726547c-0.136734,18.074234 0.414047,20.417984 1.242188,21.535172c1.238281,1.367188 2.761719,2.20314 6.347672,2.20314c1.238312,0 0.82814,1.105469 0.148438,1.238266c-5.117188,1.378922 -10.492188,3.03125 -14.35939,4.699234" id="svg_5" stroke="null"/>
    <path fill-rule="nonzero" fill="rgb(203, 51, 59);" d="m285.8125,51.820309c-14.90625,0 -18.765625,1.65625 -22.359375,3.585941c-2.203125,1.37891 -3.855469,14.070313 -3.855469,83.070313c0,1.929688 0.273438,3.316406 2.207031,3.867188c3.316406,0.820313 9.9375,0.820313 26.21875,0.820313c27.042969,0 41.117188,-24.007813 41.117188,-46.08593c0,-25.667984 -13.800781,-45.257824 -43.328125,-45.257824m86.9375,189.593754c-6.347656,0 -20.703125,1.378906 -24.835938,1.378906c-3.871094,0 -11.042969,-12.40625 -16.566467,-22.347656c-13.79303,-24.839844 -24.007751,-43.609375 -31.734436,-54.644531c-9.9375,-14.628906 -12.140625,-16.289063 -28.148438,-16.289063c-2.484375,0 -7.453125,0.28125 -9.660156,0.835938c-1.660156,0.269531 -2.207031,1.375 -2.207031,3.855469c0.273438,72.316422 1.652344,80.035172 3.855469,81.14064c3.59375,2.20314 10.773438,1.925781 17.667999,3.582031c2.210907,0.558578 1.65625,3.59375 0.273438,3.59375c-7.726593,-0.835953 -18.488281,-1.105484 -33.117172,-1.105484c-14.628922,0 -26.210953,0.269531 -33.664063,1.105484c-1.660172,0 -2.214828,-3.035172 0.273438,-3.59375c6.621094,-1.65625 14.628922,-1.378922 18.207031,-3.582031c2.214844,-1.378922 3.875,-8.550781 3.875,-91.34375c0,-83.074226 -1.660156,-90.246086 -3.875,-91.628906c-3.57814,-1.93359 -11.585938,-1.93359 -18.207031,-3.58593c-2.488266,-0.554688 -1.933578,-3.59375 -0.273438,-3.59375c7.45314,0.832031 28.976563,1.378902 43.597641,1.378902c14.910187,0 24.839844,-1.378902 32.574219,-1.378902c38.085968,0 64.574249,22.351563 64.574249,50.785141c0,21.808578 -17.660187,42.499992 -44.984406,48.292976c-1.09375,0.28125 -0.828125,1.382797 0,2.48439c5.519531,6.347656 12.972656,19.878906 23.734406,37.257813c20.417969,33.125 28.707001,45.269531 39.46875,49.679688c7.453125,3.03125 11.867188,4.14064 20.699219,5.23439c2.480469,0.285126 1.929688,3.59375 0.546875,3.59375c-7.445313,-0.835953 -15.453125,-1.105484 -22.074219,-1.105484" id="svg_6" stroke="null"/>
   </g>
  </symbol>
  <symbol id="svg_13" xmlns="http://www.w3.org/2000/svg" xmlns:svg="http://www.w3.org/2000/svg" xmlns:xlink="http://www.w3.org/1999/xlink">
   <!-- Created with SVG-edit - http://svg-edit.googlecode.com/ -->
   <defs>
    <symbol id="svg_8" viewBox="0 0 432 288" xmlns:xlink="http://www.w3.org/1999/xlink" xmlns="http://www.w3.org/2000/svg">
     <g id="svg_9">
      <path fill-rule="nonzero" fill="rgb(203, 51, 59);" d="m202.699219,236.867188c-16.835938,5.523438 -40.292969,9.9375 -60.714844,9.9375c-67.617188,0 -105.984375,-49.679688 -105.984375,-104.605469c0,-54.082031 48.300781,-101.00391 103.21875,-101.00391c21.800781,0 44.164047,3.31641 62.652344,9.38282c2.753906,0.832031 4.410156,28.421871 4.6875,38.37109c0.273438,1.929688 -2.761719,1.929688 -3.03125,0.53907c-12.699219,-29.53125 -32.292969,-41.671879 -66.792969,-41.671879c-41.675781,0 -74.507824,36.98048 -74.507824,95.218746c0,57.683594 36.980473,97.148438 76.992184,97.148438c34.496078,0 58.230469,-16.007797 70.929672,-45.820297c0.277328,-1.382813 3.3125,-1.382813 3.039047,0.832016c-1.10939,9.65625 -7.730469,40.839844 -10.488281,41.67189" id="svg_12"/>
      <path fill-rule="nonzero" fill="rgb(203, 51, 59);" d="m212.007813,141.613281c-3.304688,-3.171875 -7.03125,-4.410156 -12.550781,-4.410156c-10.761719,0 -17.808594,9.652328 -17.808594,26.488281c0,15.871078 8.011719,25.261719 20.152344,25.261719c6.074219,0 9.796875,-1.523438 13.664063,-5.39064c1.101563,-1.25 1.515625,-1.925781 1.515625,-3.45314l0.273438,-15.175781c0.273438,-16.96875 -1.789063,-20.003906 -5.246094,-23.320297m8.5625,53.550781c-0.417969,0.26564 -1.109375,0 -1.246078,-0.691422c-1.097672,-2.757813 -1.652328,-5.519531 -1.933578,-8.566422c0,-0.410172 -0.960953,-0.683578 -1.097672,-0.54689c-4.414047,5.246094 -11.45314,9.386719 -19.1875,9.386719c-16.554688,0 -26.347672,-13.390625 -26.347672,-29.945297c0,-16.152328 12.960953,-30.085953 30.625,-30.085953c5.9375,0 10.496094,0.82814 14.628922,2.621094c0.554703,0.144531 1.242203,0 1.242203,-0.554688c-0.136734,-38.359383 -0.550781,-40.292976 -1.929703,-41.121086c-1.23439,-0.824234 -3.445297,-1.378914 -6.761719,-1.792984c-1.105469,-0.140633 -0.832031,-1.105469 -0.14064,-1.238266c6.628922,-1.109383 14.210938,-3.59375 18.632813,-6.757813c0.824219,-0.554688 1.652344,0.410156 1.515625,1.097656c-0.828125,2.898453 -1.101547,8.28125 -1.101547,9.792984l-0.277328,68.726555c-0.136734,18.074234 0.414047,20.417984 1.242188,21.535172c1.238281,1.367188 2.761719,2.20314 6.347672,2.20314c1.238297,0 0.82814,1.105469 0.148438,1.238266c-5.117188,1.378922 -10.492188,3.03125 -14.35939,4.699234" id="svg_11"/>
      <path fill-rule="nonzero" fill="rgb(203, 51, 59);" d="m285.8125,51.820309c-14.90625,0 -18.765625,1.65625 -22.359375,3.585941c-2.203125,1.37891 -3.855469,14.070313 -3.855469,83.070313c0,1.929688 0.273438,3.316406 2.207031,3.867188c3.316406,0.820313 9.9375,0.820313 26.21875,0.820313c27.042969,0 41.117188,-24.007813 41.117188,-46.08593c0,-25.667984 -13.800781,-45.257824 -43.328125,-45.257824m86.9375,189.593754c-6.347656,0 -20.703125,1.378906 -24.835938,1.378906c-3.871094,0 -11.042969,-12.40625 -16.566467,-22.347656c-13.792999,-24.839844 -24.007751,-43.609375 -31.734406,-54.644531c-9.9375,-14.628906 -12.140625,-16.289063 -28.148438,-16.289063c-2.484375,0 -7.453125,0.28125 -9.660156,0.835938c-1.660156,0.269531 -2.207031,1.375 -2.207031,3.855469c0.273438,72.316422 1.652344,80.035172 3.855469,81.14064c3.59375,2.20314 10.773438,1.925781 17.667969,3.582031c2.210938,0.558578 1.65625,3.59375 0.273438,3.59375c-7.726563,-0.835953 -18.488281,-1.105484 -33.117172,-1.105484c-14.628922,0 -26.210953,0.269531 -33.664063,1.105484c-1.660172,0 -2.214828,-3.035172 0.273438,-3.59375c6.621094,-1.65625 14.628922,-1.378922 18.207031,-3.582031c2.214844,-1.378922 3.875,-8.550781 3.875,-91.34375c0,-83.074226 -1.660156,-90.246086 -3.875,-91.628906c-3.57814,-1.93359 -11.585938,-1.93359 -18.207031,-3.58593c-2.488266,-0.554688 -1.933578,-3.59375 -0.273438,-3.59375c7.45314,0.832031 28.976563,1.378902 43.597641,1.378902c14.910187,0 24.839844,-1.378902 32.574219,-1.378902c38.085968,0 64.574249,22.351563 64.574249,50.785141c0,21.808578 -17.660187,42.499992 -44.984406,48.292976c-1.09375,0.28125 -0.828125,1.382797 0,2.48439c5.519531,6.347656 12.972656,19.878906 23.734406,37.257813c20.417969,33.125 28.707001,45.269531 39.46875,49.679688c7.453125,3.03125 11.867188,4.14064 20.699219,5.23439c2.480469,0.285126 1.929688,3.59375 0.546875,3.59375c-7.445313,-0.835953 -15.453125,-1.105484 -22.074219,-1.105484" id="svg_10"/>
     </g>
    </symbol>
   </defs>
   <g id="svg_15">
    <title>Layer 1</title>
    <use fill="#e21a23" x="0" y="0" transform="matrix(0.37037035822868347,0,0,0.37037035822868347,0,0) " xlink:href="#svg_8" id="svg_7"/>
   </g>
  </symbol>
 </defs>
 <g stroke="null" display="inline">
  <title>Layer 1</title>
  <use fill="none" x="0" y="0" transform="matrix(1.159667793535766,0,0,1.159667793535766,-50.78322822127152,-85.09897583868833) " xlink:href="#svg_2" id="svg_3" stroke="null"/>
  <use id="svg_14" xlink:href="#svg_13" transform="matrix(3.0366547107696533,0,0,3.0366547107696533,-40.18287283359746,-75.64915950884324) " y="0" x="0"/>
 </g>
</svg>